<?xml version="1.0" standalone="no"?>
<!DOCTYPE svg PUBLIC "-//W3C//DTD SVG 20010904//EN"
 "http://www.w3.org/TR/2001/REC-SVG-20010904/DTD/svg10.dtd">
<svg version="1.0" xmlns="http://www.w3.org/2000/svg"
 width="283.000000pt" height="283.000000pt" viewBox="0 0 283.000000 283.000000"
 preserveAspectRatio="xMidYMid meet">
<metadata>
Created by potrace 1.14, written by Peter Selinger 2001-2017
</metadata>
<g transform="translate(0.000000,283.000000) scale(0.100000,-0.100000)"
fill="#000000" stroke="none">
<path d="M0 1415 l0 -1415 1415 0 1415 0 0 1415 0 1415 -1415 0 -1415 0 0
-1415z m1560 21 c0 -296 3 -386 13 -394 6 -6 37 -17 67 -25 54 -15 51 -15
-135 -15 -172 0 -186 1 -144 13 98 27 99 29 99 367 0 154 -5 289 -10 310 -11
38 -44 58 -96 58 -45 0 -24 19 29 25 28 4 72 15 97 25 87 35 80 69 80 -364z
m-1070 359 c0 -2 -14 -11 -30 -20 -47 -24 -41 -59 56 -298 48 -116 91 -221 96
-231 10 -18 11 -18 20 -1 24 42 148 327 177 408 36 96 34 107 -19 131 -21 9
-13 11 63 14 48 1 126 1 175 0 l87 -3 -42 -13 c-23 -7 -52 -25 -64 -40 -19
-24 -21 -35 -15 -102 3 -41 19 -152 36 -247 56 -328 66 -351 150 -377 42 -13
32 -14 -147 -15 -106 -1 -193 1 -193 4 0 3 20 10 44 16 64 16 81 39 80 107 0
61 -84 562 -93 562 -8 0 -187 -424 -234 -555 -21 -60 -43 -114 -47 -118 -4 -5
-20 29 -35 75 -49 147 -187 479 -247 592 l-15 29 -6 -34 c-16 -87 -38 -307
-44 -434 -5 -119 -3 -145 10 -172 20 -38 26 -42 86 -58 42 -12 29 -13 -139
-13 l-185 -1 53 18 c65 23 89 44 102 90 6 20 28 169 50 331 45 332 47 309 -35
332 -80 23 -56 28 123 28 100 0 182 -2 182 -5z m1708 -9 c-75 -23 -83 -39 -86
-191 l-4 -135 226 0 226 0 0 128 c0 154 -7 171 -75 194 l-50 16 185 0 c177 0
183 -1 137 -15 -77 -23 -77 -23 -77 -383 0 -357 1 -362 73 -380 23 -6 47 -13
52 -15 6 -2 -75 -4 -180 -4 l-190 0 50 17 c71 24 75 36 75 235 l0 167 -222 -2
-223 -3 0 -171 c0 -197 2 -203 84 -229 43 -13 34 -14 -144 -14 -182 0 -188 1
-143 15 84 26 83 21 83 384 0 362 1 358 -82 383 -46 14 -40 15 137 15 155 0
179 -2 148 -12z"/>
</g>
</svg>
