<?xml version="1.0" encoding="UTF-8" standalone="no"?>
<!DOCTYPE svg PUBLIC "-//W3C//DTD SVG 1.1//EN" "http://www.w3.org/Graphics/SVG/1.1/DTD/svg11.dtd">
<svg width="100%" height="100%" viewBox="0 0 571 428" version="1.1" xmlns="http://www.w3.org/2000/svg" xmlns:xlink="http://www.w3.org/1999/xlink" xml:space="preserve" xmlns:serif="http://www.serif.com/" style="fill-rule:evenodd;clip-rule:evenodd;stroke-linecap:round;stroke-linejoin:round;stroke-miterlimit:1.5;">
    <g id="Capa1">
        <path d="M233.104,81.306C218.461,103.139 189.507,147.453 189.507,147.453L144.257,214.405C189.72,150.309 249.132,65.867 254.004,66.846C258.684,72.95 235.314,119.063 200.515,186.325" style="fill:none;stroke:black;stroke-width:2.15px;"/>
        <path d="M163.055,155.418C165.26,153.797 237.446,119.808 246.899,124.781" style="fill:none;stroke:black;stroke-width:2.15px;"/>
    </g>
    <g id="Capa2">
        <path d="M236.411,142.633L225.631,163.684C232.373,153.896 240.409,141.371 243.438,142.042C247.943,143.04 244.498,154.602 247.512,156.702C249.587,158.147 257.363,155.188 260.3,151.321" style="fill:none;stroke:black;stroke-width:2.15px;"/>
    </g>
    <g id="Capa3">
        <path d="M213.161,284.936C238.362,256.93 253.673,213.195 245.203,211.294C233.266,208.616 174.444,274.44 177.086,299.43C180.256,329.418 219.28,305.952 242.959,266.266" style="fill:none;stroke:black;stroke-width:2.15px;"/>
    </g>
    <g id="Capa13">
        <path d="M338.818,268.043C336.114,269.717 333.75,271.014 331.77,271.9C313.624,280.023 333.991,256.65 329.002,255.417C322.214,253.739 301.77,274.495 304.901,279.535C306.724,282.472 317.78,274.788 329.411,258.541L332.053,254.763" style="fill:none;stroke:black;stroke-width:2.15px;"/>
    </g>
    <g id="Capa4">
        <path d="M292.724,131.135C292.549,131.986 259.668,205.84 255.164,203.99C252.154,202.754 256.616,187.526 266.454,173.419C274.492,161.892 283.716,153.587 293.431,146.963" style="fill:none;stroke:black;stroke-width:2.15px;"/>
    </g>
    <g id="Capa5">
        <path d="M260.547,150.799C262.222,144.355 284.044,130.69 287.595,130.714C295.183,130.764 286.989,138.931 279.261,146.391C264.728,160.42 259.133,156.239 260.547,150.799Z" style="fill:none;stroke:black;stroke-width:2.15px;"/>
    </g>
    <g id="Capa6">
        <path d="M359.659,66.491C354.309,75.469 318.24,129.649 323.898,138.548C326.703,142.961 339.712,133.474 341.947,128" style="fill:none;stroke:black;stroke-width:2.15px;"/>
    </g>
    <g id="Capa11">
        <path d="M283.063,265.204C272.467,272.671 259.877,286.19 264.902,291.402C268.963,295.613 281.19,287.127 285.652,275.832C288.178,269.436 281.112,268.192 274.643,272.093" style="fill:none;stroke:black;stroke-width:2.15px;"/>
    </g>
    <g id="Capa12">
        <path d="M288.676,269.632C286.624,274.925 285.553,280.604 285.56,286.707C293.983,275.189 302.471,265.393 310.999,256.613" style="fill:none;stroke:black;stroke-width:2.15px;"/>
        <path d="M347.331,251.9L335.949,273.531C343.007,263.902 349.822,255.53 356.067,250.131C354.146,266.159 361.03,269.013 370.461,262.782" style="fill:none;stroke:black;stroke-width:2.15px;"/>
        <path d="M381.23,243.731L368.844,265.477C375.692,256.98 381.312,249.822 387.63,243.05C387.824,258.501 393.532,261.377 402.76,253.835" style="fill:none;stroke:black;stroke-width:2.15px;"/>
    </g>
    <g id="Capa7">
        <path d="M359.058,109.151C347.994,116.585 337.374,131.377 341.638,134.999C345.356,138.158 357.931,125.124 360.452,119.25C362.548,114.364 354.093,112.934 349.801,114.59" style="fill:none;stroke:black;stroke-width:2.15px;"/>
    </g>
    <g id="Capa8">
        <path d="M318.37,130.8C311.685,141.914 299.66,146.962 296.364,144.09C292.804,140.986 306.674,123.641 314.006,120.334C318.738,118.2 318.565,123.984 314.884,127.431C310.394,131.398 304.889,132.557 299.259,131.926" style="fill:none;stroke:black;stroke-width:2.15px;"/>
        <path d="M244.41,263.438C226.401,299.057 194.171,370.479 184.814,366.851C177.453,363.997 184.594,351.89 205.891,323.126C218.103,308.348 237.772,285.564 257.33,283.515" style="fill:none;stroke:black;stroke-width:2.15px;"/>
        <path d="M261.702,270.448C244.377,292.956 245.506,301.862 263.745,285.716" style="fill:none;stroke:black;stroke-width:2.15px;"/>
    </g>
    <g id="Capa9">
        <path d="M270.172,258.602C270.227,258.487 270.277,258.582 270.277,258.46" style="fill:none;stroke:black;stroke-width:2.15px;"/>
    </g>
    <g id="Capa10">
        <path d="M413.25,233.327C407.577,240.273 400.714,254.887 403.69,256.415C406.261,257.733 421.823,243.97 427.912,233.311C417.516,256.753 405.999,280.753 392.855,301.844C397.37,280.756 417.814,258.425 437.06,240.895" style="fill:none;stroke:black;stroke-width:2.15px;"/>
    </g>
</svg>
